<svg xmlns="http://www.w3.org/2000/svg" viewBox="60 150 340 100">
  <path xmlns="http://www.w3.org/2000/svg" d="M389.5 184.915h-33.414l-10.336-31.78-10.335 31.78H302l27.036 19.649-10.337 31.797 27.051-19.645 27.033 19.644-10.317-31.797 27.034-19.648Zm-22.038 44.12-21.712-15.78v-14.11l-21.726 29.89 8.303-25.54h-.001l13.41-4.362-35.124-11.418-.001-.001h26.836l8.289 11.418h.014v-36.949l8.303 25.53-8.303 11.42 35.14-11.418-21.715 15.78-13.425-4.362v.014l21.712 29.888Z"/>
  <path d="M115.353 208.795v3.603h-.894c-.026-.5-.578-1.762-1.92-1.788h-6.259v6.68h5.576c.841-.08 1.21-.342 1.236-.973h.63v3.497h-.63c-.027-.63-.395-.894-1.236-.973h-5.602v7.312c-.026.526.526.736 1.13.736v.684h-5.075v-.684c.605 0 1.157-.21 1.13-.736v-15.938c-.026-.526-.578-.736-1.13-.736v-.684h13.044Zm13.416 19.33c-5.365 0-9.178-4.47-9.178-9.967 0-5.234 3.813-9.705 9.178-9.705 5.339 0 9.152 4.471 9.152 9.705 0 5.496-3.813 9.967-9.152 9.967Zm.105-1.446c3.577 0 5.655-4.05 5.655-8.521 0-4.182-2.078-8.232-5.655-8.232-3.577 0-5.654 4.05-5.654 8.232 0 4.47 2.078 8.52 5.654 8.52v.001Zm27.276-.474c.5.5.92.684 1.473.684v.684h-3.814l-4.891-7.101h-2.63v5.68c0 .527.552.737 1.13.737v.684h-5.128v-.684c.579 0 1.131-.21 1.131-.736v-16.07c-.105-.394-.605-.552-1.104-.552v-.683h6.943c4.418 0 6.732 2.445 6.732 5.707s-2.314 5.286-4.234 5.286l4.392 6.364Zm-7.048-7.39c2.209.026 3.84-2.025 3.84-4.523 0-2.578-2.157-3.893-3.998-3.893-1.999 0-2.577-.105-2.577.947v7.443l2.735.026Zm31.565-5.339c-.21-2.235-1.998-3.471-4.418-3.366-3.156.158-4.129 3.55-1.525 4.944.605.316 1.683.79 3.34 1.63 2.235 1.132 4.813 2.736 4.865 5.287.079 3.471-1.92 5.812-6.575 5.812-3.103 0-4.55-.947-5.523-1.867v-3.288h.921c.263 2.104 2.34 3.55 4.497 3.55 1.946 0 3.419-.84 3.445-3.129.053-2.709-2.025-3.445-4.26-4.444-1.473-.658-4.208-1.605-4.76-4.13-.737-3.392 2.235-5.811 5.233-6.022 2.21-.158 4.05.474 5.628 1.71 0 0 .08 2.577.08 3.313h-.948Zm24.173-4.023c-.605 0-1.158.21-1.131.736v15.964c-.027.526.526.736 1.13.736v.684h-4.891v-.684c.526 0 1-.158 1.105-.526l.026-7.522h-10.125v7.312c-.027.526.526.736 1.13.736v.684h-4.917v-.684c.604 0 1.157-.21 1.13-.736v-16.254c-.157-.316-.604-.447-1.078-.447v-.684h4.866v.684c-.605 0-1.158.21-1.131.736v7.048h10.125v-7.337c-.158-.316-.605-.447-1.078-.447v-.684h4.839v.685Zm-16.49.736v-.079.079Zm12.781 0v-.079.079Zm-.052 16.042v-.078.078Zm20.2-2.209h.895v3.55h-13.097v-.683c.605 0 1.157-.21 1.131-.736v-15.964c-.026-.526-.579-.736-1.13-.736v-.684h13.044v3.603h-.895c-.026-.526-.578-1.789-1.92-1.789h-6.259v6.68h5.576c.841-.078 1.21-.341 1.236-.973h.631v3.498h-.631c-.027-.631-.395-.894-1.236-.973h-5.602v6.996h6.338c1.341 0 1.894-1.263 1.92-1.789h-.001Zm19.124 2.183c.5.5.92.684 1.472.684v.684h-3.813l-4.892-7.101h-2.63v5.68c0 .527.553.737 1.131.737v.684h-5.128v-.684c.579 0 1.13-.21 1.13-.736v-16.07c-.104-.394-.604-.552-1.104-.552v-.683h6.943c4.419 0 6.733 2.445 6.733 5.707s-2.314 5.286-4.234 5.286l4.392 6.364Zm-7.048-7.39c2.209.026 3.84-2.025 3.84-4.523 0-2.578-2.157-3.893-3.998-3.893-1.999 0-2.578-.105-2.578.947v7.443l2.736.026Zm17.413-9.336c-.579 0-1.13.21-1.13.736v15.938c0 .526.551.736 1.13.736v.684h-5.181v-.684c.579 0 1.13-.21 1.13-.736v-15.938c0-.526-.551-.736-1.13-.736v-.684h5.18v.684h.001Zm18.334-.684v3.603h-.894c-.027-.5-.579-1.762-1.92-1.788h-6.26v6.68h5.576c.842-.08 1.21-.342 1.236-.973h.631v3.497h-.631c-.026-.63-.394-.894-1.236-.973h-5.602v7.312c-.026.526.526.736 1.131.736v.684h-5.076v-.684c.605 0 1.158-.21 1.131-.736v-15.938c-.026-.526-.578-.736-1.13-.736v-.684h13.044Zm17.282 0v3.603h-.895c-.026-.5-.578-1.762-1.92-1.788h-6.259v6.68h5.576c.841-.08 1.21-.342 1.236-.973h.631v3.497h-.631c-.026-.63-.395-.894-1.236-.973h-5.602v7.312c-.026.526.526.736 1.131.736v.684h-5.076v-.684c.605 0 1.157-.21 1.131-.736v-15.938c-.026-.526-.579-.736-1.13-.736v-.684h13.044ZM118.04 173.849v.99c-.8 0-1.828.267-2.02.991l.04-.039-7.163 25.37h-4.457l-5.941-16.494-5.485 16.494h-4.762l-7.161-25.332v.076c-.115-.761-1.066-1.066-1.905-1.066v-.99h7.123v.99c-.647 0-.914.19-.953.609l5.639 20.647 6.247-17.065h3.047l6.551 17.065 5.219-20.19c.191-.761-.038-1.066-.876-1.066v-.99h6.857Zm-2.02 1.981v.075-.075Zm25.07 20.188h1.296v5.142h-18.97v-.989c.876 0 1.676-.305 1.637-1.066v-23.123c-.038-.762-.837-1.066-1.637-1.066v-.991h18.892v5.219h-1.295c-.038-.762-.839-2.591-2.781-2.591h-9.067v9.675h8.076c1.22-.113 1.753-.494 1.79-1.409h.916v5.066h-.916c-.037-.914-.57-1.294-1.79-1.409h-8.112v10.133h9.18c1.94 0 2.741-1.829 2.781-2.591Zm14.937-21.064c-.839 0-1.637.304-1.637 1.066v23.085c0 .761.798 1.066 1.637 1.066v.99h-7.503v-.99c.837 0 1.637-.305 1.637-1.066V176.02c0-.762-.8-1.066-1.637-1.066v-.991h7.503v.991Zm22.288 5.789c-.304-3.237-2.894-5.027-6.399-4.875-4.571.229-5.98 5.142-2.209 7.161.877.457 2.438 1.144 4.838 2.361 3.237 1.639 6.971 3.962 7.046 7.657.115 5.028-2.781 8.418-9.523 8.418-4.494 0-6.59-1.371-7.999-2.704v-4.762h1.332c.382 3.047 3.392 5.142 6.515 5.142 2.819 0 4.952-1.217 4.99-4.532.077-3.924-2.933-4.99-6.17-6.437-2.134-.953-6.095-2.325-6.895-5.982-1.067-4.913 3.237-8.417 7.58-8.722 3.201-.229 5.866.686 8.151 2.476 0 0 .116 3.733.116 4.799h-1.373Zm26.022 6.209c1.637.839 4.99 1.676 4.99 7.086 0 4.761-5.027 7.123-9.028 7.123H187.73v-.99c.647 0 1.295-.192 1.523-.573l.038-23.73c-.229-.496-.876-.685-1.561-.685v-.991h11.693c4.496 0 8.99 2.171 8.99 6.628 0 4.152-2.4 5.258-4.076 6.132Zm-11.124-10.703.04 9.637c1.713-.039 4.989-.116 6.286-.116 2.436 0 4.684-1.979 4.684-4.646 0-3.428-3.162-4.875-5.181-4.875h-5.829Zm7.238 22.664c2.286-.037 4.571-1.79 4.571-5.637 0-2.514-3.047-5.485-5.485-5.485l-6.208.038v7.046c0 4.457 2.132 4.038 7.122 4.038Zm-11.085.305v-.113.113Zm50.211-25.293v.991c-.876 0-1.676.304-1.637 1.066v15.542c0 4.19-1.981 10.17-10.515 10.17-8.835 0-11.083-5.982-11.083-9.523v-16.189c.037-.762-.762-1.066-1.639-1.066v-.991h7.847v.991c-.877 0-1.676.304-1.637 1.066v15.846c0 3.353 1.218 7.198 6.513 7.198 5.296 0 6.094-3.845 6.094-7.007v-16.037c.039-.762-.761-1.066-1.637-1.066v-.991h7.694Zm26.212 25.255c.724.724 1.332.991 2.133.991v.99H262.4l-7.086-10.285h-3.809v8.227c0 .763.799 1.068 1.636 1.068v.99h-7.426v-.99c.838 0 1.637-.305 1.637-1.066v-23.276c-.152-.571-.875-.8-1.599-.8v-.989h10.056c6.399 0 9.751 3.541 9.751 8.266s-3.352 7.656-6.133 7.656l6.362 9.218Zm-10.209-10.704c3.201.038 5.562-2.933 5.562-6.551 0-3.734-3.124-5.639-5.79-5.639-2.896 0-3.733-.152-3.733 1.372v10.78l3.961.038ZM300 174.344v.991c-.837 0-1.599.266-1.636.951v24.875h-2.744l-16.913-19.084v17.103c.038.686.8.953 1.637.953v1.028h-7.047v-1.028c.839 0 1.601-.267 1.639-.953v-22.894c-.038-.685-.8-.951-1.637-.951v-.991h3.885l17.714 19.58v-17.638c-.04-.685-.801-.951-1.64-.951v-.991H300Z"/>
</svg>
