<?xml version="1.0" standalone="no"?>
<!DOCTYPE svg PUBLIC "-//W3C//DTD SVG 20010904//EN"
 "http://www.w3.org/TR/2001/REC-SVG-20010904/DTD/svg10.dtd">
<svg version="1.0" xmlns="http://www.w3.org/2000/svg"
 width="800.000000pt" height="800.000000pt" viewBox="0 0 800.000000 800.000000"
 preserveAspectRatio="xMidYMid meet">
<metadata>
Created by potrace 1.14, written by Peter Selinger 2001-2017
</metadata>
<g transform="translate(0.000000,800.000000) scale(0.100000,-0.100000)"
fill="#000000" stroke="none">
<path d="M3337 7324 c-1 -1 -85 -5 -187 -9 -102 -3 -198 -8 -215 -10 -16 -2
-66 -7 -110 -10 -86 -7 -149 -13 -205 -20 -19 -3 -55 -7 -79 -10 -23 -3 -55
-7 -70 -10 -15 -3 -43 -7 -62 -9 -265 -35 -615 -129 -863 -233 -374 -157 -668
-388 -864 -678 -72 -107 -113 -186 -192 -370 -43 -101 -105 -354 -125 -515 -3
-25 -8 -63 -11 -85 -10 -77 -12 -561 -3 -630 18 -125 62 -185 149 -199 37 -6
3164 -7 5010 -2 944 2 1079 4 1110 18 96 42 124 136 124 413 0 111 -12 357
-19 393 -2 10 -6 43 -10 73 -5 47 -13 98 -31 199 -45 247 -155 528 -289 735
-294 455 -809 744 -1551 871 -16 2 -55 9 -86 15 -32 5 -77 12 -100 14 -45 4
-126 14 -168 20 -14 2 -65 7 -115 10 -49 4 -106 8 -125 10 -133 12 -903 28
-913 19z"/>
<path d="M529 4328 c-96 -9 -136 -34 -158 -98 -15 -40 -21 -680 -24 -2245 -2
-809 0 -988 12 -1028 16 -57 63 -101 122 -117 27 -8 243 -12 653 -13 l613 -2
48 30 c69 43 100 110 110 240 2 22 4 252 5 511 0 321 4 482 12 508 16 51 59
93 105 103 46 9 1651 11 1744 1 130 -12 158 -46 175 -208 4 -48 6 -573 2 -865
-2 -157 11 -213 64 -262 43 -41 85 -43 693 -39 632 4 636 5 696 62 33 32 57
108 64 199 4 57 6 823 3 1340 0 61 4 122 10 137 27 66 106 73 164 14 70 -70
117 -220 173 -550 52 -309 87 -463 136 -596 11 -30 25 -69 30 -85 18 -62 118
-246 172 -317 122 -162 282 -266 462 -302 17 -4 41 -9 55 -12 40 -9 299 -12
334 -4 17 4 56 13 86 20 30 7 60 15 65 19 6 3 15 6 21 7 24 4 142 68 199 108
150 108 270 269 356 481 31 77 72 242 84 335 4 30 9 66 11 80 1 14 4 84 5 155
2 146 -9 200 -52 246 l-27 29 -261 0 c-278 0 -305 -4 -346 -50 -21 -24 -21
-18 -16 -290 5 -224 -45 -339 -160 -370 -95 -26 -170 23 -200 130 -13 49 -13
88 -23 1415 -9 1144 -9 1155 -35 1207 -11 24 -35 52 -53 63 -33 19 -73 20
-3048 20 -1658 0 -3045 -3 -3081 -7z"/>
</g>
</svg>
